# xmcd
#
# Track frame offsets:
#	150
#	21522
#	41275
#	62382
#	77115
#	106637
#	132177
#	150060
#	166462
#	190012
#	213300
#	233725
#	260080
#	277465
#	293552
#
# Disc length: 4228 seconds
#
# Revision: 1
# Processed by: cddbd v1.5.1PL2 Copyright (c) Steve Scherf et al.
# Submitted via: audiograbber 1.83.01
#
DISCID=c510820f
DTITLE=Tom Waits - Used Songs 1973-1980
DYEAR=1900
DGENRE=
TTITLE0=HeartAttack and vine
TTITLE1=Eggs and Sausage (in a Cadillac with Susan Michelson)
TTITLE2=A Sight for Sore Eyes
TTITLE3=Whistlin' Past the Graveyard
TTITLE4=Burma Shave
TTITLE5=Step Right You
TTITLE6=OL' '55
TTITLE7=I never talk to Strangers
TTITLE8=Mr. Siegal
TTITLE9=Jersey Girl
TTITLE10=Christmas Card from a Hooker in Minneapolis
TTITLE11=Blue Valentines
TTITLE12=(Looking For) the Heart of Saturday Night
TTITLE13=Muriel
TTITLE14=Wrong Side of the Road
EXTD=
EXTT0=
EXTT1=
EXTT2=
EXTT3=
EXTT4=
EXTT5=
EXTT6=
EXTT7=
EXTT8=
EXTT9=
EXTT10=
EXTT11=
EXTT12=
EXTT13=
EXTT14=
PLAYORDER=
